<?xml version="1.0" standalone="no"?><!DOCTYPE svg PUBLIC "-//W3C//DTD SVG 1.1//EN" "http://www.w3.org/Graphics/SVG/1.1/DTD/svg11.dtd"><svg t="1698817605684" class="icon" viewBox="0 0 1024 1024" version="1.1" xmlns="http://www.w3.org/2000/svg" p-id="5129" xmlns:xlink="http://www.w3.org/1999/xlink" width="200" height="200"><path d="M262.9 754.9c-2 0-4-0.4-6-1.2-8.2-3.3-12.2-12.6-8.9-20.8 14.3-35.6-0.6-46.8-2.4-47.9 0.3 0.2 0.4 0.3 0.4 0.3l15.9-27.8c1.7 1 41.1 24.4 15.7 87.4-2.4 6.2-8.4 10-14.7 10z" fill="#802637" p-id="5130"></path><path d="M129.1 822.7a371.4 99.6 0 1 0 742.8 0 371.4 99.6 0 1 0-742.8 0Z" fill="#DBD5C0" p-id="5131"></path><path d="M817.3 329.7c-9.4-9.3-62.1-78.5-62.1-78.5C648 130.9 587 133.8 510.6 157.7c-29.8 9-62.7 0.2-81.3-7.1-14.5-5.7-25.5-3.3-37 3.5-13.3 7.7-18.3 15.6-21.5 30.3-4.3 19.7-11.7 52.7-34.5 74-58.9 54.3-91.9 105.6-41.2 258.5 0 0 33.5 80.3 36.9 93 4.3 16.3 17.3 54.4 68.8 96.4 46.4 37.9 78.6 67.6 78.6 67.6S546.5 837 666.6 800c44.3-4.4 66.1-5 88.2-18.1 22.4-12.6 33.9-32.4 59.8-67.3 92.2-85.5 71-175.1 71-175.1s-9.7-42.8-19.3-101.9c-10.6-65.7-37.1-96-49-107.9z" fill="#F5AE8C" p-id="5132"></path><path d="M885.6 539.4s-9.7-42.8-19.3-101.9c-10.6-65.7-39-94.3-49.1-107.8-195.4-263.1-208-166-313.3-176.2 78.1 39.5 105 20.2 139.9 66.8 91.6 122 153.9 200.6 163.6 239.6 38.9 156-56.7 295-251.7 348.2 29.2 5.5 66.5 5.5 111-8.2 44.3-4.4 66.1-5 88.2-18.1 22.4-12.6 33.9-32.4 59.8-67.3 92-85.5 70.9-175.1 70.9-175.1z" fill="#E66E44" p-id="5133"></path><path d="M901.2 535.9c-0.1-0.4-9.7-43-19.1-100.9-8.1-50.1-26.1-89.4-53.4-116.7-6.3-6.2-40.6-50.4-60.7-76.8-0.3-0.3-0.5-0.6-0.8-0.9C714.6 181.5 669.8 148 626 135c-41-12.2-77.7-5.9-120 7.3-27.4 8.3-58.6-1.9-70.7-6.7-23.1-9.2-40.1-1.8-50.9 4.5-16.6 9.6-24.8 21-29.1 40.7-0.5 2.1-1 4.4-1.5 6.8-0.4 1-0.6 2.1-0.8 3.3-4.2 17.6-11.4 40.6-27.4 55.6-32.7 30.1-56.4 58.7-66.4 100.3-10.7 44.4-4 100 20.8 175 0.1 0.4 0.2 0.7 0.4 1.1 12.8 30.7 33.9 82.5 36.2 91 9.9 37.4 34.9 72.6 74.2 104.7 45.4 37.1 77.5 66.7 77.8 67 1.7 1.6 20.4 18.5 54.1 30.3 17.5 6.1 41.4 11.6 70.6 11.6 22.5 0 48.1-3.2 76.5-11.8 4.4-0.4 8.7-0.8 12.7-1.2 36-3.4 57.7-5.4 80.3-18.8 21.4-12 33.6-28.8 52-54.3 3.7-5.1 7.5-10.3 11.8-16.1 49.9-46.8 67.7-95.1 73.8-127.4 6.6-35 1.3-59.7 0.8-62zM679.4 782.6c-4.5 0.4-9.3 0.9-14.4 1.4-1.1 0.1-2.2 0.3-3.2 0.6-45.9 14.1-88.6 14.7-127.1 1.6-28.7-9.7-44.3-23.9-44.4-24l-0.1-0.1c-0.3-0.3-33-30.6-79.3-68.3-34-27.7-55.3-57.3-63.5-88.1-3.4-13-31.1-79.7-37.3-94.5-22.7-68.8-29-118.7-20-157 8.1-33.9 27.8-57.3 57-84.2l0.1-0.1c5.1-4.8 9.5-10 13.4-15.5 1.6 9.6 3.6 20.1 5.9 31.4 1.6 7.6 8.3 12.8 15.7 12.8 1 0 2.1-0.1 3.3-0.3 8.6-1.8 14.2-10.2 12.4-18.9-9.5-45.9-12.3-77.6-12.9-85.5 0.5-2.2 1-4.3 1.4-6.2 0.1-0.5 0.2-1 0.4-1.6 41.3 60.5 220.8 328.4 345.6 588.3-13.1 4.4-28.6 5.9-53 8.2z m189.2-189.1c-7.4 37.2-26.9 71.7-58.1 102.6-4.7-37.2-12.3-74-22.7-109.7-2.4-8.5-11.3-13.4-19.8-10.9-8.5 2.4-13.4 11.3-10.9 19.8 12.9 44.2 21.3 90.1 25 136.5-8.3 11.4-14.9 19.8-22 26.3-129.1-268-314.9-543.3-349.9-594.4 4.2-0.8 8.2-0.2 13.2 1.7 18.9 7.5 56 18.5 91.8 7.6h0.1c37.8-11.8 68-17.1 101.4-7.2 37.7 11.2 77.8 41.6 126 95.7 9.7 12.7 53.7 70.1 63.2 79.6 22.6 22.4 37.6 55.7 44.6 99C860.1 499 869.9 542.5 870 543c0 0.1 4.5 20.7-1.4 50.5z" fill="#802637" p-id="5134"></path><path d="M522.4 195.2c-6.8-5.6-16.9-4.6-22.5 2.2s-4.6 16.9 2.2 22.5C570.6 276.2 665 372 725.6 509c2.6 5.9 8.5 9.5 14.6 9.5 2.1 0 4.3-0.4 6.4-1.3 8.1-3.6 11.8-13 8.2-21.1-63.1-142.7-161.2-242.4-232.4-300.9zM654.4 743.1C581.5 677.9 533 616.8 492 538.8c-4.1-7.8-13.8-10.8-21.6-6.7-7.8 4.1-10.8 13.8-6.7 21.6 42.9 81.6 93.5 145.3 169.4 213.2 3.1 2.8 6.9 4.1 10.7 4.1 4.4 0 8.8-1.8 11.9-5.3 5.8-6.6 5.3-16.7-1.3-22.6zM449.7 504.4c2.2 0 4.5-0.5 6.8-1.5 8-3.7 11.5-13.2 7.8-21.2C440 429 420.4 373 406.1 315.4c-2.1-8.6-10.8-13.8-19.4-11.7-8.6 2.1-13.8 10.8-11.7 19.4 14.8 59.5 35.1 117.4 60.2 172 2.7 5.8 8.4 9.3 14.5 9.3zM574.7 738.1c-41.3-24.7-78.2-55.9-109.6-92.8-5.8-6.7-15.9-7.5-22.6-1.8-6.7 5.8-7.5 15.9-1.8 22.6 33.7 39.5 73.2 73 117.5 99.5 2.6 1.6 5.4 2.3 8.2 2.3 5.4 0 10.7-2.7 13.8-7.9 4.5-7.5 2.1-17.4-5.5-21.9zM353.1 416c-11.5-49.4-13.1-83.8-13.1-84.5-0.3-8.9-7.8-15.7-16.6-15.4-8.9 0.3-15.7 7.8-15.4 16.6 0 1.5 1.5 37.2 13.8 89.7 11.2 48.3 34 120.5 79.2 190.3 3 4.7 8.2 7.3 13.4 7.3 3 0 6-0.8 8.8-2.5 7.4-4.8 9.5-14.7 4.7-22.1-42.5-65.7-64.1-133.8-74.8-179.4zM675.9 260c-6.5 6-7 16.1-1 22.6 37.7 41.3 68.2 85.9 90.5 132.5C794 474.8 809 537.7 810 602c0.1 8.7 7.3 15.7 16 15.7h0.4c8.8-0.1 15.8-7.4 15.7-16.2-2.5-154.4-79.5-270.4-143.6-340.5-6-6.5-16.1-7-22.6-1z" fill="#802637" p-id="5135"></path><path d="M146.6 516.9c8.7-55.6 45.5-78.3 68.5-87.2 11.6-4.5 22.1-11.6 30.4-20.8 23.5-25.8 54.5-30.2 73.3-30.2 11.5 0 22.8-2.3 33.6-6.4 70.5-27 109.5 21.7 90.5 54.7l-0.2 0.3c19-32.9 80.7-23.6 92.6 51 1.8 11.4 5.5 22.4 11.2 32.3 9.4 16.2 21 45.4 10.5 78.6-3.8 11.9-4.7 24.5-2.8 36.8 3.8 24.4 2.6 67.6-41.2 102.9-8 6.4-13.8 15.2-16.3 25.1-5.6 22.4-22.9 62.4-76 72.6-4.3 0.8-8.2 2.9-11.2 6-8.9 9.3-34.2 27.5-86.6 13.6-4.5-1.2-11.9-1-16.3 0.5-41.3 14.4-97-9.6-76.5-51.1l0.2-0.3c-25.7 38.5-74.3 2.3-82.5-40.7-0.9-4.6-4.4-11.1-7.7-14.4-38.2-38.4-35.1-69.4-31.5-81.8 1.2-4.2 1-8.6-0.4-12.7-17.7-51.1 8.3-86.1 24.9-102.2 7.3-7 12-16.4 13.5-26.6z" fill="#FFCFAD" p-id="5136"></path><path d="M207.4 807.3c-7.7 0-15.4-0.2-23-0.7 11.4 6.1 23.6 7.2 34.2 0.5-3.7 0.1-7.5 0.2-11.2 0.2zM544.2 488.4c-15.9 157.4-119.4 323.3-317.9 318.5-6.4 34.5 42.9 53 80.3 39.9 4.4-1.5 11.8-1.7 16.3-0.5 52.4 13.9 77.6-4.3 86.6-13.6 3-3.1 6.9-5.2 11.2-6 53.1-10.3 70.4-50.3 76-72.6 2.5-9.9 8.3-18.7 16.3-25.1 43.8-35.3 45-78.5 41.2-102.9-1.9-12.3-1-24.9 2.8-36.8 9.4-29.6-4.3-84.1-12.8-100.9z" fill="#FD9D57" p-id="5137"></path><path d="M239.8 493.1c-4.2 0-8.4-1.6-11.5-4.9-6.1-6.4-5.9-16.5 0.5-22.6 14.8-14.2 65-50.8 95.9-53.3 8.8-0.7 16.5 5.9 17.2 14.7 0.7 8.8-5.9 16.5-14.7 17.2-17.7 1.4-59.4 28.3-76.2 44.5-3.3 3-7.3 4.4-11.2 4.4zM201.4 533.5c-2.3 0-4.7-0.5-7-1.6-7.7-3.7-10.9-13.6-7.4-21.4l0.1-0.2c3.4-7.4 11.9-11.3 19.6-8.6 5.9 2.1 12 6.9 10.5 18-0.3 2.5-1.1 4.9-2.6 6.9-2.2 3.1-6.2 6.5-13.2 6.9z" fill="#FFFFFF" p-id="5138"></path><path d="M323.1 618.8c-2.7-5.7-1.8-12.7 2.7-17.7 46.1-49.9 84.1-24.3 85.7-23.2 7.2 5 9.1 15 4 22.2-5 7.2-15 9.1-22.2 4-0.1 0-17.5-10-43.9 18.7-6 6.5-16.1 6.9-22.6 0.9-1.7-1.4-2.9-3.1-3.7-4.9z" fill="#802637" p-id="5139"></path><path d="M560.2 502.7c-4.6-7.9-7.7-16.9-9.3-26.8-8.4-52.7-39.2-76.7-65.2-81.5-8.3-1.5-16.6-1.3-24.2 0.6-2.1-7.8-6.1-15.2-11.7-21.8-10.3-12.1-24.9-20.1-42.3-23.2-18.7-3.3-39.2-0.8-60.9 7.5-9.4 3.6-18.8 5.4-27.9 5.4-19.7 0-57 4.6-85.1 35.4-6.7 7.3-15.1 13-24.4 16.6-25.1 9.6-68.6 35.4-78.6 99.6-1 6.9-4.2 13.1-8.9 17.7-9.2 8.9-21.7 23.7-29.2 43.9-8.8 23.8-8.7 49 0.3 75 0.3 0.8 0.5 1.9 0.2 3.1-4.2 14.4-9 52.8 35.5 97.5 1.2 1.1 3.1 4.6 3.4 6.1 6.5 33.6 32.7 63.3 61 69 6.5 1.3 12.9 1.3 18.9 0.1 1.9 6 5.2 11.7 9.7 16.8 13.3 15 36 23.4 59.4 23.4 10.4 0 21-1.7 30.9-5.1 1.5-0.5 5.5-0.6 7-0.2 14.9 3.9 28 5.5 39.4 5.5 35.4 0 55-15.4 62.7-23.4 0.6-0.7 1.6-1.2 2.7-1.4 27-5.2 48.9-17.8 65.1-37.3 13.7-16.6 20.3-34.8 23.4-47.2 1.6-6.4 5.4-12.3 10.8-16.6 50.6-40.8 51.2-91.4 47-117.9-1.6-9.8-0.8-20 2.2-29.4 12.6-39.8-2-74.3-11.9-91.4zM199.4 795.4c-13.8-2.8-31.6-21.1-35.9-43.7-1.5-7.7-6.4-17-12.1-22.7-32.6-32.7-30.1-57.1-27.5-66.1 2.1-7.3 1.8-15-0.7-22.3-14-40.5 3.6-68.8 20.9-85.5 9.7-9.4 16.2-22.1 18.3-35.7 7.2-45.8 35.8-65.9 58.5-74.7 13.9-5.3 26.5-14 36.5-24.9 18.9-20.7 43.9-25 61.5-25 13 0 26.3-2.5 39.3-7.5 34.3-13.1 57.3-5.2 67.4 6.6 6.6 7.8 7.9 17.4 3.4 25.2l-0.1 0.2-37 64.1c-6.9-13.6-17-19.6-17.8-20.1-7.6-4.4-17.4-1.8-21.8 5.9-4.4 7.6-1.8 17.4 5.9 21.8 0.1 0.1 16.3 11.4 2.1 47.1l-13.6 23.6c-6.9-13-16.6-18.8-17.4-19.3-7.6-4.4-17.4-1.8-21.8 5.9-4.4 7.6-1.8 17.4 5.9 21.8 0.1 0.1 15 10.5 3.7 42.8l-24.7 42.8c-6.9-13.3-16.8-19.2-17.6-19.7-7.6-4.4-17.4-1.8-21.8 5.9-4.4 7.6-1.8 17.4 5.9 21.8 0.1 0.1 15.6 10.9 3 44.9L216 788c-6 8.3-12.1 8.4-16.6 7.4z m342.4-211.1c-4.5 14.2-5.6 29.4-3.3 44.1 3.7 24.1 0.6 58.9-35.5 88-10.8 8.6-18.5 20.6-21.8 33.7-5.8 23.3-21.5 52.7-63.5 60.8-7.6 1.5-14.5 5.2-19.7 10.6-6.5 6.8-26.4 21.1-71 9.3-3.4-0.9-7.3-1.3-11.2-1.3-5.1 0-10.3 0.7-14.5 2.3-21.7 7.6-46.4 1.4-55.7-9.2-3.2-3.6-6.3-9.1-1.4-19.3 0.2-0.3 0.3-0.6 0.4-0.9l43-74.4c1.1-1.2 2-2.6 2.7-4.2 2.9-0.7 5.6-2.3 7.8-4.6 26.4-28.7 43.8-18.7 43.9-18.7 7.2 5.1 17.2 3.2 22.2-4 5.1-7.2 3.2-17.2-4-22.2-1-0.7-15.8-10.6-37.8-6.5l18.6-32.2c1.7-1.5 3-3.5 3.9-5.7 0.5-1.1 0.9-2.3 1.3-3.4l44.4-76.9c2.2-0.9 4.3-2.2 6-4.1 26.4-28.7 43.8-18.7 43.9-18.7 7.2 5.1 17.2 3.2 22.2-4 5.1-7.2 3.2-17.2-4-22.2-1-0.7-14.9-10.1-35.8-6.9l34.7-60.1c4.8-6.6 13.2-9.7 22.4-7.9 15.2 2.8 33.6 18.8 39.4 55.1 2.2 13.8 6.7 26.5 13.2 37.8 8.9 15.2 17.7 39 9.2 65.7z" fill="#802637" p-id="5140"></path></svg>