<?xml version="1.0" standalone="no"?><!DOCTYPE svg PUBLIC "-//W3C//DTD SVG 1.1//EN" "http://www.w3.org/Graphics/SVG/1.1/DTD/svg11.dtd"><svg t="1698818157229" class="icon" viewBox="0 0 1024 1024" version="1.1" xmlns="http://www.w3.org/2000/svg" p-id="2446" xmlns:xlink="http://www.w3.org/1999/xlink" width="200" height="200"><path d="M804.8 931.8h-570c-16.6 0-30-13.4-30-30v-640c0-16.6 13.4-30 30-30h570c16.6 0 30 13.4 30 30v640c0 16.5-13.4 30-30 30z" fill="#80CBC4" p-id="2447"></path><path d="M804.8 944.3h-570c-23.4 0-42.5-19.1-42.5-42.5v-640c0-23.4 19.1-42.5 42.5-42.5h570c23.4 0 42.5 19.1 42.5 42.5v640c0 23.4-19.1 42.5-42.5 42.5z m-570-700c-9.6 0-17.5 7.9-17.5 17.5v640c0 9.6 7.9 17.5 17.5 17.5h570c9.6 0 17.5-7.9 17.5-17.5v-640c0-9.6-7.9-17.5-17.5-17.5h-570z" fill="#40220F" p-id="2448"></path><path d="M801.1 914.5H519.8V247.3h281.3c11 0 20 9 20 20v627.3c0 10.9-9 19.9-20 19.9z" fill="#B2DFDB" p-id="2449"></path><path d="M387.3 184.8v94c0 1.7-1.3 3-3 3s-3-1.3-3-3v-94c0-1.7 1.3-3 3-3 1.6 0 3 1.3 3 3z" fill="#40220F" p-id="2450"></path><path d="M384.3 294.3c-8.5 0-15.5-7-15.5-15.5v-94c0-8.5 7-15.5 15.5-15.5s15.5 7 15.5 15.5v94c0 8.5-7 15.5-15.5 15.5zM658.3 184.8v94c0 1.7-1.3 3-3 3s-3-1.3-3-3v-94c0-1.7 1.3-3 3-3s3 1.3 3 3z" fill="#40220F" p-id="2451"></path><path d="M655.3 294.3c-8.5 0-15.5-7-15.5-15.5v-94c0-8.5 7-15.5 15.5-15.5s15.5 7 15.5 15.5v94c0 8.5-6.9 15.5-15.5 15.5z" fill="#40220F" p-id="2452"></path><path d="M665 428.6H371c-1.7 0-3-1.3-3-3s1.3-3 3-3h294c1.7 0 3 1.3 3 3 0 1.6-1.3 3-3 3z" fill="#FFFFFF" p-id="2453"></path><path d="M665 441.1H371c-8.5 0-15.5-7-15.5-15.5s7-15.5 15.5-15.5h294c8.5 0 15.5 7 15.5 15.5s-7 15.5-15.5 15.5z" fill="#40220F" p-id="2454"></path><path d="M666.8 581.4h-294c-1.7 0-3-1.3-3-3s1.3-3 3-3h294c1.7 0 3 1.3 3 3 0 1.6-1.3 3-3 3z" fill="#FFFFFF" p-id="2455"></path><path d="M666.8 593.9h-294c-8.5 0-15.5-7-15.5-15.5s7-15.5 15.5-15.5h294c8.5 0 15.5 7 15.5 15.5s-7 15.5-15.5 15.5z" fill="#40220F" p-id="2456"></path><path d="M665.9 743.1h-294c-1.7 0-3-1.3-3-3s1.3-3 3-3h294c1.7 0 3 1.3 3 3 0 1.6-1.3 3-3 3z" fill="#FFFFFF" p-id="2457"></path><path d="M665.9 755.6h-294c-8.5 0-15.5-7-15.5-15.5s7-15.5 15.5-15.5h294c8.5 0 15.5 7 15.5 15.5s-7 15.5-15.5 15.5z" fill="#40220F" p-id="2458"></path><path d="M833.8 819.1m-110 0a110 110 0 1 0 220 0 110 110 0 1 0-220 0Z" fill="#FFF176" p-id="2459"></path><path d="M833.8 941.6c-67.5 0-122.5-55-122.5-122.5s55-122.5 122.5-122.5 122.5 55 122.5 122.5-55 122.5-122.5 122.5z m0-220c-53.8 0-97.5 43.7-97.5 97.5s43.7 97.5 97.5 97.5 97.5-43.7 97.5-97.5-43.7-97.5-97.5-97.5z" fill="#40220F" p-id="2460"></path><path d="M834.8 724.7v189.8c51.3 0 92.9-42.5 92.9-94.9 0-52.4-41.6-94.9-92.9-94.9z" fill="#FAFFAD" p-id="2461"></path><path d="M876.2 795.6l-52.3 52.3c-1.2 1.2-3.1 1.2-4.2 0-1.2-1.2-1.2-3.1 0-4.2l52.3-52.3c1.2-1.2 3.1-1.2 4.2 0 1.2 1.1 1.2 3 0 4.2z" fill="#40220F" p-id="2462"></path><path d="M821.8 861.3c-4 0-7.9-1.5-11-4.5-6-6-6-15.9 0-21.9l52.3-52.3c2.9-2.9 6.8-4.5 11-4.5 4.1 0 8 1.6 11 4.5 6 6 6 15.9 0 21.9l-52.3 52.3c-3.1 3-7 4.5-11 4.5z" fill="#40220F" p-id="2463"></path><path d="M791.3 821.7l24 24c1.2 1.2 3.1 1.2 4.2 0 1.2-1.2 1.2-3.1 0-4.2l-24-24c-1.2-1.2-3.1-1.2-4.2 0-1.2 1.1-1.2 3 0 4.2z" fill="#40220F" p-id="2464"></path><path d="M817.4 859.1c-4.1 0-8-1.6-11-4.5l-24-24c-6-6-6-15.9 0-21.9 6-6 15.9-6 21.9 0l24 24c2.9 2.9 4.5 6.8 4.5 11 0 4.1-1.6 8-4.5 11-2.8 2.8-6.7 4.4-10.9 4.4z" fill="#40220F" p-id="2465"></path></svg>