<?xml version="1.0" standalone="no"?><!DOCTYPE svg PUBLIC "-//W3C//DTD SVG 1.1//EN" "http://www.w3.org/Graphics/SVG/1.1/DTD/svg11.dtd"><svg t="1698818143575" class="icon" viewBox="0 0 1024 1024" version="1.1" xmlns="http://www.w3.org/2000/svg" p-id="2275" xmlns:xlink="http://www.w3.org/1999/xlink" width="200" height="200"><path d="M845.1 944.2h-600c-16.6 0-30-13.4-30-30v-720c0-16.6 13.4-30 30-30h600c16.6 0 30 13.4 30 30v720c0 16.6-13.5 30-30 30z" fill="#B1CBFA" p-id="2276"></path><path d="M845.1 956.7h-600c-23.4 0-42.5-19.1-42.5-42.5v-720c0-23.4 19.1-42.5 42.5-42.5h600c23.4 0 42.5 19.1 42.5 42.5v720c0 23.4-19.1 42.5-42.5 42.5z m-600-780c-9.6 0-17.5 7.9-17.5 17.5v720c0 9.6 7.9 17.5 17.5 17.5h600c9.6 0 17.5-7.9 17.5-17.5v-720c0-9.6-7.9-17.5-17.5-17.5h-600z" fill="#40220F" p-id="2277"></path><path d="M260.9 367.7h-94c-1.7 0-3-1.3-3-3s1.3-3 3-3h94c1.7 0 3 1.3 3 3s-1.3 3-3 3z" fill="#40220F" p-id="2278"></path><path d="M260.9 380.2h-94c-8.5 0-15.5-7-15.5-15.5s7-15.5 15.5-15.5h94c8.5 0 15.5 7 15.5 15.5s-7 15.5-15.5 15.5zM260.9 572h-94c-1.7 0-3-1.3-3-3s1.3-3 3-3h94c1.7 0 3 1.3 3 3 0 1.6-1.3 3-3 3z" fill="#40220F" p-id="2279"></path><path d="M260.9 584.5h-94c-8.5 0-15.5-7-15.5-15.5s7-15.5 15.5-15.5h94c8.5 0 15.5 7 15.5 15.5s-7 15.5-15.5 15.5z" fill="#40220F" p-id="2280"></path><path d="M260.9 766h-94c-1.7 0-3-1.3-3-3s1.3-3 3-3h94c1.7 0 3 1.3 3 3 0 1.6-1.3 3-3 3z" fill="#40220F" p-id="2281"></path><path d="M260.9 778.5h-94c-8.5 0-15.5-7-15.5-15.5s7-15.5 15.5-15.5h94c8.5 0 15.5 7 15.5 15.5s-7 15.5-15.5 15.5z" fill="#40220F" p-id="2282"></path><path d="M844 927.6H547.4V178.8H844c8.3 0 15 6.7 15 15v718.8c0 8.3-6.7 15-15 15z" fill="#DFE2FE" p-id="2283"></path><path d="M676.6 517.8l-258.4-1c-0.8 0-1.5-0.7-1.5-1.5v-2.2c0-0.8 0.7-1.5 1.5-1.5l258.4 1c0.8 0 1.5 0.7 1.5 1.5v2.2c0 0.8-0.7 1.5-1.5 1.5z" fill="#FFFFFF" p-id="2284"></path><path d="M676.6 530.3s-0.1 0 0 0l-258.4-1c-3.7 0-7.2-1.5-9.9-4.1s-4.1-6.2-4.1-9.9v-2.2c0-3.7 1.5-7.2 4.1-9.9 2.7-2.6 6.2-4.1 9.9-4.1l258.4 1c7.7 0 14 6.3 13.9 14v2.2c0 3.7-1.5 7.3-4.1 9.9-2.6 2.6-6.1 4.1-9.8 4.1z m0-25z" fill="#40220F" p-id="2285"></path><path d="M550.1 514.7l-1 258.4c0 0.8-0.7 1.5-1.5 1.5h-2.2c-0.8 0-1.5-0.7-1.5-1.5l1-258.4c0-0.8 0.7-1.5 1.5-1.5h2.2c0.8 0 1.5 0.7 1.5 1.5z" fill="#FFFFFF" p-id="2286"></path><path d="M547.6 787.1h-2.3c-7.7 0-14-6.3-14-14l1-258.4c0-3.7 1.5-7.3 4.1-9.9 2.7-2.6 6.2-4 9.9-4.1h2.2c7.7 0 14 6.3 14 14l-1 258.4c0.1 7.7-6.2 14-13.9 14z" fill="#40220F" p-id="2287"></path><path d="M676.2 622.3l-258.4-1c-0.8 0-1.5-0.7-1.5-1.5v-2.2c0-0.8 0.7-1.5 1.5-1.5l258.4 1c0.8 0 1.5 0.7 1.5 1.5v2.2c0 0.8-0.7 1.5-1.5 1.5z" fill="#FFFFFF" p-id="2288"></path><path d="M676.2 634.8l-258.4-1c-3.7 0-7.3-1.5-9.9-4.1-2.6-2.7-4.1-6.2-4.1-9.9v-2.2c0-7.7 6.3-13.9 14-13.9l258.4 1c3.7 0 7.3 1.5 9.9 4.1s4.1 6.2 4.1 9.9v2.2c0 3.7-1.5 7.3-4.1 9.9-2.7 2.6-6.2 4-9.9 4z" fill="#40220F" p-id="2289"></path><path d="M676.2 398.1L554.7 518.8c-0.6 0.6-1.5 0.6-2.1 0l-1.6-1.6c-0.6-0.6-0.6-1.5 0-2.1l121.5-120.6c0.6-0.6 1.5-0.6 2.1 0l1.6 1.6c0.6 0.5 0.6 1.4 0 2z" fill="#FFFFFF" p-id="2290"></path><path d="M553.7 531.7c-3.6 0-7.2-1.4-9.9-4.1l-1.6-1.6c-5.4-5.5-5.4-14.4 0.1-19.8l121.5-120.6c5.5-5.4 14.4-5.4 19.8 0.1l1.6 1.6c2.6 2.6 4.1 6.2 4.1 9.9s-1.5 7.2-4.1 9.9L563.5 527.6c-2.7 2.7-6.3 4.1-9.8 4.1z m113.7-142.4z" fill="#40220F" p-id="2291"></path><path d="M419.5 397.2l120.6 121.5c0.6 0.6 1.5 0.6 2.1 0l1.6-1.6c0.6-0.6 0.6-1.5 0-2.1L423.2 393.5c-0.6-0.6-1.5-0.6-2.1 0l-1.6 1.6c-0.5 0.5-0.5 1.5 0 2.1z" fill="#FFFFFF" p-id="2292"></path><path d="M541.2 531.6c-3.8 0-7.3-1.5-9.9-4.1L410.7 406c-5.4-5.5-5.4-14.4 0.1-19.8l1.6-1.6c2.6-2.6 6.1-4.1 9.9-4.1h0.1c3.7 0 7.2 1.5 9.9 4.1l120.6 121.5c5.4 5.5 5.4 14.4-0.1 19.8l-1.6 1.6c-2.7 2.7-6.2 4.1-10 4.1z" fill="#40220F" p-id="2293"></path></svg>