<?xml version="1.0" standalone="no"?><!DOCTYPE svg PUBLIC "-//W3C//DTD SVG 1.1//EN" "http://www.w3.org/Graphics/SVG/1.1/DTD/svg11.dtd"><svg t="1698818130766" class="icon" viewBox="0 0 1024 1024" version="1.1" xmlns="http://www.w3.org/2000/svg" p-id="1927" xmlns:xlink="http://www.w3.org/1999/xlink" width="200" height="200"><path d="M773.1 922.4h-570c-16.6 0-30-13.4-30-30v-640c0-16.6 13.4-30 30-30h570c16.6 0 30 13.4 30 30v640c0 16.6-13.4 30-30 30z" fill="#80BFFF" p-id="1928"></path><path d="M773.1 934.9h-570c-23.4 0-42.5-19.1-42.5-42.5v-640c0-23.4 19.1-42.5 42.5-42.5h570c23.4 0 42.5 19.1 42.5 42.5v640c0 23.4-19.1 42.5-42.5 42.5z m-570-700c-9.6 0-17.5 7.9-17.5 17.5v640c0 9.6 7.9 17.5 17.5 17.5h570c9.6 0 17.5-7.9 17.5-17.5v-640c0-9.6-7.9-17.5-17.5-17.5h-570z" fill="#40220F" p-id="1929"></path><path d="M769.4 905.1H488.1V237.9h281.3c11 0 20 9 20 20v627.3c0 11-9 19.9-20 19.9z" fill="#BBDEFB" p-id="1930"></path><path d="M355.6 175.4v94c0 1.7-1.3 3-3 3s-3-1.3-3-3v-94c0-1.7 1.3-3 3-3 1.6 0 3 1.4 3 3z" fill="#40220F" p-id="1931"></path><path d="M352.6 284.9c-8.5 0-15.5-7-15.5-15.5v-94c0-8.5 7-15.5 15.5-15.5s15.5 7 15.5 15.5v94c0 8.6-7 15.5-15.5 15.5zM626.6 175.4v94c0 1.7-1.3 3-3 3s-3-1.3-3-3v-94c0-1.7 1.3-3 3-3s3 1.4 3 3z" fill="#40220F" p-id="1932"></path><path d="M623.6 284.9c-8.5 0-15.5-7-15.5-15.5v-94c0-8.5 7-15.5 15.5-15.5s15.5 7 15.5 15.5v94c0 8.6-6.9 15.5-15.5 15.5z" fill="#40220F" p-id="1933"></path><path d="M633.3 419.2h-294c-1.7 0-3-1.3-3-3s1.3-3 3-3h294c1.7 0 3 1.3 3 3s-1.3 3-3 3z" fill="#FFFFFF" p-id="1934"></path><path d="M633.3 431.7h-294c-8.5 0-15.5-7-15.5-15.5s7-15.5 15.5-15.5h294c8.5 0 15.5 7 15.5 15.5s-7 15.5-15.5 15.5z" fill="#40220F" p-id="1935"></path><path d="M635.1 572h-294c-1.7 0-3-1.3-3-3s1.3-3 3-3h294c1.7 0 3 1.3 3 3s-1.3 3-3 3z" fill="#FFFFFF" p-id="1936"></path><path d="M635.1 584.5h-294c-8.5 0-15.5-7-15.5-15.5s7-15.5 15.5-15.5h294c8.5 0 15.5 7 15.5 15.5s-7 15.5-15.5 15.5z" fill="#40220F" p-id="1937"></path><path d="M634.2 733.7h-294c-1.7 0-3-1.3-3-3s1.3-3 3-3h294c1.7 0 3 1.3 3 3s-1.3 3-3 3z" fill="#FFFFFF" p-id="1938"></path><path d="M634.2 746.2h-294c-8.5 0-15.5-7-15.5-15.5s7-15.5 15.5-15.5h294c8.5 0 15.5 7 15.5 15.5s-7 15.5-15.5 15.5z" fill="#40220F" p-id="1939"></path><path d="M802.1 812.7m-110 0a110 110 0 1 0 220 0 110 110 0 1 0-220 0Z" fill="#FEC8D8" p-id="1940"></path><path d="M802.1 935.2c-67.5 0-122.5-55-122.5-122.5s55-122.5 122.5-122.5 122.5 55 122.5 122.5-55 122.5-122.5 122.5z m0-220c-53.8 0-97.5 43.7-97.5 97.5s43.7 97.5 97.5 97.5 97.5-43.7 97.5-97.5-43.7-97.5-97.5-97.5z" fill="#40220F" p-id="1941"></path><path d="M803.1 716.5v191.6c52.7 0 95.4-42.9 95.4-95.8s-42.7-95.8-95.4-95.8z" fill="#FFDFDF" p-id="1942"></path><path d="M762.5 855.4l-0.3-20 84.9-1.2c0.9 0 1.6-0.2 2-0.4v-34.1c-0.4-0.2-1-0.4-1.9-0.4l-84.7 1.2-0.3-20 84.9-1.2c12.1 0 22 8.7 22 19.3V835c0 10.6-9.8 19.3-21.9 19.3l-84.7 1.1z" fill="#40220F" p-id="1943"></path><path d="M776 808.3l-28.5-18.2c-0.6-0.4-0.6-1.3 0-1.7l28.5-18.2c0.7-0.4 1.5 0.1 1.5 0.8v36.4c0.1 0.9-0.8 1.4-1.5 0.9z" fill="#40220F" p-id="1944"></path><path d="M776.6 818.5c-2.1 0-4.1-0.6-5.9-1.7l-28.5-18.2c-3.2-2-5.1-5.5-5.1-9.3s1.9-7.2 5.1-9.3l28.5-18.2c3.4-2.2 7.7-2.3 11.2-0.4 3.5 1.9 5.7 5.6 5.7 9.6v36.4c0 4-2.2 7.7-5.7 9.6-1.7 1-3.5 1.5-5.3 1.5z m-11.8-29.2l2.8 1.8v-3.5l-2.8 1.7z" fill="#40220F" p-id="1945"></path><path d="M762.3 845.4m-10 0a10 10 0 1 0 20 0 10 10 0 1 0-20 0Z" fill="#40220F" p-id="1946"></path></svg>